<svg width="128" height="128" viewBox="0 0 33.866666 33.866666" version="1.1" id="svg14396" xmlns="http://www.w3.org/2000/svg" xmlns:xlink="http://www.w3.org/1999/xlink">
  <defs id="defs14393">
    <linearGradient id="linearGradient3563">
      <stop style="stop-opacity: 1; stop-color: rgb(248, 241, 32);" offset="0" id="stop3559"></stop>
      <stop style="stop-opacity: 0.677711; stop-color: rgba(255, 251, 132, 0.68);" offset="1" id="stop3561"></stop>
    </linearGradient>
    <linearGradient id="linearGradient550">
      <stop style="stop-color:#333333;stop-opacity:1;" offset="0" id="stop546"></stop>
      <stop style="stop-color:#333333;stop-opacity:0;" offset="1" id="stop548"></stop>
    </linearGradient>
    <linearGradient id="linearGradient10652">
      <stop style="stop-opacity: 1; stop-color: rgb(18, 135, 61);" offset="0" id="stop10648"></stop>
      <stop style="stop-opacity: 1; stop-color: rgb(49, 254, 118);" offset="1" id="stop10650"></stop>
    </linearGradient>
    <linearGradient id="linearGradient11444">
      <stop style="stop-color:#ff1c1c;stop-opacity:1;" offset="0" id="stop11440"></stop>
      <stop style="stop-color:#ffffff;stop-opacity:1" offset="1" id="stop11442"></stop>
    </linearGradient>
    <linearGradient id="linearGradient23664-9" gradientUnits="userSpaceOnUse" x1="259.85562" y1="95.912872" x2="263.09381" y2="107.51228" xlink:href="#linearGradient11444"></linearGradient>
    <linearGradient id="linearGradient25633" gradientUnits="userSpaceOnUse" gradientTransform="matrix(0.49446513,0,0,0.4991482,-33.283182,-25.266113)" x1="68.049248" y1="84.542854" x2="135.06526" y2="84.542854" xlink:href="#linearGradient3563"></linearGradient>
    <linearGradient id="linearGradient25635" gradientUnits="userSpaceOnUse" gradientTransform="matrix(0.373015,-0.261833,0.24432029,0.38493279,-29.944041,-54.277479)" x1="2.2915413" y1="199.35558" x2="17.29129" y2="242.77249" xlink:href="#linearGradient550"></linearGradient>
    <linearGradient id="linearGradient25637" gradientUnits="userSpaceOnUse" gradientTransform="matrix(0.44953615,0,0,0.45606206,-28.900457,-54.277479)" x1="75.85955" y1="136.54718" x2="128.57552" y2="134.74713" xlink:href="#linearGradient10652"></linearGradient>
    <linearGradient id="linearGradient25639" gradientUnits="userSpaceOnUse" gradientTransform="matrix(0.44953615,0,0,0.45606206,-28.875036,-22.166263)" x1="66.234169" y1="90.083794" x2="117.93053" y2="90.923538" xlink:href="#linearGradient10652"></linearGradient>
    <linearGradient id="linearGradient25641" gradientUnits="userSpaceOnUse" x1="259.85562" y1="95.912872" x2="263.09381" y2="107.51228" xlink:href="#linearGradient11444"></linearGradient>
    <linearGradient id="linearGradient25643" gradientUnits="userSpaceOnUse" x1="259.85562" y1="95.912872" x2="263.09381" y2="107.51228" xlink:href="#linearGradient11444"></linearGradient>
    <linearGradient id="linearGradient25645" gradientUnits="userSpaceOnUse" x1="259.85562" y1="95.912872" x2="263.09381" y2="107.51228" xlink:href="#linearGradient11444"></linearGradient>
    <linearGradient id="linearGradient25647" gradientUnits="userSpaceOnUse" x1="259.85562" y1="95.912872" x2="263.09381" y2="107.51228" xlink:href="#linearGradient11444"></linearGradient>
    <linearGradient id="linearGradient25649" gradientUnits="userSpaceOnUse" x1="259.85562" y1="95.912872" x2="263.09381" y2="107.51228" xlink:href="#linearGradient11444"></linearGradient>
    <linearGradient id="linearGradient25651" gradientUnits="userSpaceOnUse" x1="259.85562" y1="95.912872" x2="263.09381" y2="107.51228" xlink:href="#linearGradient11444"></linearGradient>
    <linearGradient id="linearGradient25653" gradientUnits="userSpaceOnUse" x1="259.85562" y1="95.912872" x2="263.09381" y2="107.51228" xlink:href="#linearGradient11444"></linearGradient>
    <linearGradient id="linearGradient25655" gradientUnits="userSpaceOnUse" x1="259.85562" y1="95.912872" x2="263.09381" y2="107.51228" xlink:href="#linearGradient11444"></linearGradient>
    <linearGradient id="linearGradient25657" gradientUnits="userSpaceOnUse" x1="259.85562" y1="95.912872" x2="263.09381" y2="107.51228" xlink:href="#linearGradient11444"></linearGradient>
    <linearGradient id="linearGradient25659" gradientUnits="userSpaceOnUse" x1="259.85562" y1="95.912872" x2="263.09381" y2="107.51228" xlink:href="#linearGradient11444"></linearGradient>
    <linearGradient id="linearGradient25661" gradientUnits="userSpaceOnUse" x1="259.85562" y1="95.912872" x2="263.09381" y2="107.51228" xlink:href="#linearGradient11444"></linearGradient>
  </defs>
  <g id="layer1">
    <ellipse style="fill:url(#linearGradient25633);fill-opacity:1;stroke:none;stroke-width:0.596135;stroke-linejoin:round;stroke-dasharray:none;stroke-opacity:1" id="path5924-8-6-2-0" cx="16.933332" cy="16.933319" rx="16.271875" ry="16.27186"></ellipse>
    <path id="rect738-0-5" style="opacity:0.232092;fill:url(#linearGradient25635);fill-opacity:1;stroke-width:0.169834;stroke-linecap:square;stroke-miterlimit:1.2" d="M 27.914655,10.499414 6.1976939,25.743211 9.9254809,31.61651 A 16.271875,16.27186 0 0 0 16.933404,33.205207 16.271875,16.27186 0 0 0 33.10085,18.670559 Z"></path>
    <path style="fill:url(#linearGradient25637);fill-opacity:1;stroke:none;stroke-width:0.093432;stroke-linejoin:round;stroke-dasharray:none" d="m 8.1649169,8.0133015 c 8.99e-4,-0.946474 0.04136,-1.802599 0.08972,-1.902499 0.19976,-0.412622 0.811044,-0.506708 3.2921651,-0.506708 h 2.553244 l 0.671162,1.140443 0.671184,1.140442 5.561351,0.0068 5.561342,0.0068 v 0.917797 0.917789 h -9.20098 -9.2009761 z" id="path5165-0-3-19-2"></path>
    <path style="fill:url(#linearGradient25639);fill-opacity:1;stroke:#000000;stroke-width:0.0426108;stroke-linejoin:round;stroke-dasharray:none" d="m 6.7037809,25.200848 c -0.05511,-0.01491 -0.117823,-0.07404 -0.139347,-0.131368 -0.02153,-0.05732 -0.05527,-3.476922 -0.07497,-7.599098 L 6.4536339,9.9755045 H 16.997118 27.540602 l -3.6e-5,2.4162115 c -2.2e-5,1.328919 -0.01803,4.763942 -0.04001,7.633384 l -0.04001,5.217172 -10.328291,-0.0071 C 11.4517,25.231572 6.7588749,25.215792 6.7037529,25.200872 Z" id="path1294-7-5-1-6"></path>
    <path style="fill:#00013b;fill-opacity:1;stroke-width:0.0838596;stroke-dasharray:none" d="m 6.4404739,25.671541 c -0.142912,-0.05898 -0.31686,-0.215325 -0.386551,-0.347437 -0.08579,-0.162628 -0.126716,-2.680263 -0.126716,-7.795269 V 9.9737665 l 0.291943,-0.296185 c 0.224327,-0.227584 0.417156,-0.29618 0.832577,-0.29618 h 0.540634 v -1.381987 c 0,-2.429652 -0.03515,-2.407082 3.8270321,-2.456747 l 2.934986,-0.03776 0.668253,0.822075 0.668249,0.822075 5.238661,0.06033 5.238656,0.06033 0.227263,0.28487 c 0.170716,0.213984 0.227267,0.476708 0.227267,1.055829 v 0.770964 h 0.421692 c 0.289142,0 0.513469,0.09311 0.713639,0.29618 l 0.291946,0.296185 v 7.5940985 c 0,7.297025 -0.0089,7.605241 -0.227348,7.878965 l -0.227348,0.284865 -10.447495,0.02353 c -5.879523,0.01323 -10.5611101,-0.02335 -10.7073401,-0.0837 z M 27.307538,17.55655 27.338198,10.1054 H 16.989528 6.6408599 v 7.400874 c 0,4.070477 0.03596,7.437369 0.07995,7.481981 0.04396,0.0446 4.6870841,0.06723 10.3180231,0.05028 l 10.238078,-0.03083 z M 25.90909,8.6573845 v -0.723998 l -5.263089,-0.0041 -5.263084,-0.0041 -0.654169,-0.83914 -0.654165,-0.839136 -2.619946,-0.0014 c -3.3444871,-0.0014 -3.1486371,-0.110759 -3.1486371,1.755269 v 1.380819 h 8.8015451 8.801545 z" id="path458-2-2-2-9"></path>
    <ellipse style="fill:#ffffff;fill-opacity:1;stroke:none;stroke-width:0.183993;stroke-linejoin:round;stroke-dasharray:none" id="path1352-8-6-1-1" cx="18.129297" cy="17.131643" rx="6.3707156" ry="6.4101" transform="matrix(0.99888158,0.04728211,-0.04594152,0.99894413,0,0)"></ellipse>
    <path id="path430-0-3-6-6" style="fill:#f95b14;fill-opacity:1;stroke-width:0.415447;stroke-dasharray:none" d="m 22.311366,22.55702 c -0.106675,0.01008 -0.213408,0.04155 -0.311888,0.0966 -0.202012,0.112834 -0.366273,0.350305 -0.38665,0.589286 -0.02036,0.238981 0.06639,0.446271 0.188562,0.618972 0.02504,0.03539 0.253314,0.589187 0.325415,0.970925 0.07555,0.400062 0.30488,0.743832 0.611949,1.173269 0.307065,0.429433 0.699667,0.894452 1.118495,1.310508 0.405531,0.402835 0.800251,0.769546 1.118127,1.042681 0.158933,0.136559 0.297669,0.249261 0.416958,0.336159 0.05965,0.04346 0.113468,0.08052 0.172622,0.114371 0.05915,0.03384 0.08979,0.08329 0.286993,0.09262 0.877198,0.0415 1.671146,-0.564172 1.710588,-1.421855 0.02248,-0.488676 -0.221625,-0.811248 -0.514035,-1.242241 -0.292405,-0.430987 -0.680665,-0.903477 -1.097956,-1.352173 -0.417291,-0.448692 -0.861132,-0.871302 -1.271405,-1.196064 -0.41027,-0.324757 -0.721555,-0.588781 -1.198158,-0.611342 -0.098,-0.0047 -0.218263,-0.03471 -0.301185,-0.07157 -0.08292,-0.03685 -0.115944,-0.100091 -0.07493,-0.02581 -0.106981,-0.193748 -0.282677,-0.331292 -0.481044,-0.392436 -0.09917,-0.03056 -0.205775,-0.04196 -0.312455,-0.03193 z"></path>
    <path id="path20332-2" style="opacity:0.243553;fill:#333333;fill-opacity:1;stroke:none;stroke-width:0.238125;stroke-linecap:square;stroke-miterlimit:1.2;stroke-opacity:1" d="m 127.38672,261.02539 c -0.0134,8e-4 -0.0262,0.005 -0.041,0.01 -0.0297,0.01 -0.0638,0.026 -0.10937,0.0488 -0.0911,0.0455 -0.22896,0.11515 -0.34571,0.2129 -0.11674,0.0977 -0.21296,0.22526 -0.2207,0.38867 -0.008,0.16341 0.0713,0.35692 0.17578,0.55273 0.10444,0.19582 0.2335,0.39415 0.32422,0.56055 0.18147,0.33281 0.21417,0.544 0.25977,0.84765 0.0456,0.30367 0.10558,0.6993 0.25781,1.14063 0.15223,0.44132 0.39638,0.92643 1.27734,2.03516 0.88097,1.10873 2.39719,2.8419 3.50586,3.99609 1.10866,1.15418 1.80823,1.7294 2.35547,2.10937 0.27362,0.18998 0.50905,0.33161 0.74219,0.40625 0.23314,0.0746 0.46477,0.0824 0.72461,0.006 0.51964,-0.15296 1.15844,-0.63819 1.40234,-0.85156 0.061,-0.0533 0.0971,-0.0897 0.11524,-0.11523 0.009,-0.0128 0.0142,-0.0223 0.0137,-0.0332 -2.4e-4,-0.005 -0.004,-0.0118 -0.008,-0.0156 -0.004,-0.004 -0.009,-0.005 -0.0137,-0.006 -0.0199,-0.005 -0.0476,-6.9e-4 -0.084,0.006 -0.0364,0.007 -0.0798,0.0159 -0.125,0.0234 -0.18081,0.0301 -0.39102,0.0302 -0.64844,0 -0.25744,-0.0302 -0.56249,-0.0902 -0.74609,-0.10547 -0.0918,-0.008 -0.14746,-0.005 -0.25195,-0.0625 -0.1045,-0.0577 -0.25627,-0.17774 -0.5293,-0.43555 -0.54606,-0.51563 -1.57997,-1.57935 -2.44531,-2.49023 -0.86536,-0.91088 -1.56359,-1.67132 -2.06446,-2.24805 -0.50086,-0.57672 -0.8047,-0.96853 -1.07812,-1.30274 -0.27342,-0.33421 -0.51568,-0.60933 -0.66797,-0.76171 -0.0761,-0.0762 -0.13063,-0.12259 -0.16992,-0.16211 -0.0393,-0.0395 -0.0636,-0.0711 -0.0859,-0.12305 -0.0447,-0.10378 -0.0766,-0.28412 -0.0918,-0.49609 -0.0152,-0.21202 -0.0156,-0.45455 -0.0156,-0.63672 v -0.42578 c 0,-0.12144 0.001,-0.2444 -0.0449,-0.38282 -0.046,-0.13834 -0.13724,-0.29123 -0.36524,-0.58007 -0.22799,-0.28884 -0.5931,-0.71507 -0.77539,-0.92774 -0.0912,-0.10638 -0.13673,-0.15906 -0.1875,-0.17578 -0.0127,-0.004 -0.0257,-0.007 -0.0391,-0.006 z" transform="matrix(0.47522368,-0.00314789,0.0031084,0.49638839,-39.42579,-106.05139)"></path>
    <path id="path1352-8-6-1-0-1" style="opacity:0.438395;fill:#4d4d4d;fill-opacity:1;stroke:none;stroke-width:0.191097;stroke-linejoin:round;stroke-dasharray:none" d="m 10.709805,18.301464 a 6.710476,6.5646331 78.692126 0 0 0.495461,2.008027 6.710476,6.5646331 78.692126 0 0 8.61825,3.618278 6.710476,6.5646331 78.692126 0 0 2.071521,-1.412059 7.7071676,7.164349 68.63157 0 1 -1.367871,0.780126 7.7071676,7.164349 68.63157 0 1 -9.573416,-4.321165 7.7071676,7.164349 68.63157 0 1 -0.243945,-0.673207 z"></path>
    <path id="path432-8-9-5-2" style="fill:#00013b;fill-opacity:1;stroke-width:0.415447;stroke-dasharray:none" d="m 17.676455,11.144947 c -1.461657,-0.07185 -2.960056,0.323941 -4.259827,1.270493 -0.334243,0.243414 -0.611607,0.527167 -0.61635,0.630296 -0.01771,0.385231 0.278987,0.356668 0.877895,-0.0842 1.417104,-1.043119 3.329656,-1.458235 4.989725,-1.083024 3.066911,0.693182 5.091361,3.280377 4.9512,6.327966 -0.132033,2.870915 -2.123464,5.177394 -5.000586,5.791714 -2.808517,0.599676 -5.775919,-0.970021 -6.945733,-3.674213 -0.413259,-0.95535 -0.459592,-1.199881 -0.455057,-2.401404 0.0045,-1.188594 0.05204,-1.4514 0.424439,-2.355962 0.288728,-0.701237 0.376833,-1.064075 0.283059,-1.165941 -0.2276,-0.247254 -0.536427,0.103562 -0.878919,0.998666 -0.453259,1.184571 -0.573878,2.058122 -0.445518,3.225212 0.213296,1.939386 1.271325,3.715255 2.88872,4.848656 1.11983,0.784732 1.965821,1.048039 3.616496,1.126172 1.563626,0.07401 2.498076,-0.101592 3.483819,-0.654814 l 0.535587,-0.300586 0.277817,0.321433 c 0.15278,0.176724 0.273754,0.4402 0.268639,0.585547 -0.02063,0.599439 0.531648,1.461049 1.830515,2.855181 0.918686,0.986088 1.550433,1.545302 1.906596,1.687872 1.442894,0.577561 2.932185,-0.711963 2.516872,-2.179243 -0.08262,-0.291888 -0.722441,-1.096414 -1.747145,-2.196928 -1.408374,-1.512543 -1.689775,-1.751342 -2.183748,-1.853628 -0.318087,-0.0659 -0.688833,-0.258199 -0.844166,-0.437869 l -0.276788,-0.320297 0.302596,-0.458005 c 0.998586,-1.51103 1.339357,-3.800785 0.825011,-5.543111 -0.879221,-2.978327 -3.534738,-4.822409 -6.325149,-4.959985 z m 4.72191,11.448672 0.377377,0.428001 c 0.296689,0.336482 0.495941,0.433879 0.931398,0.454488 0.523422,0.02476 0.639465,0.119046 2.106544,1.712814 1.473522,1.600746 1.55148,1.715126 1.52725,2.241924 -0.01919,0.417807 -0.119581,0.639659 -0.405675,0.897484 -0.408412,0.368065 -1.025972,0.421849 -1.507371,0.131273 -0.147915,-0.08928 -0.905181,-0.865049 -1.682785,-1.723987 -1.293427,-1.428697 -1.41184,-1.605444 -1.390186,-2.076278 0.01713,-0.372538 -0.06746,-0.607798 -0.306336,-0.851604 -0.408462,-0.416887 -0.405733,-0.574789 0.01699,-0.932451 z"></path>
    <path style="fill:#000000;stroke-width:0.0489549;stroke-dasharray:none" d="m 12.344323,15.570952 c -0.01245,-0.10779 -0.0066,-0.23967 0.01322,-0.293052 0.04884,-0.132801 3.111847,0.01218 3.148259,0.149023 0.01466,0.05502 0.0084,0.186871 -0.01371,0.293029 -0.03929,0.187213 -0.0867,0.190807 -1.58265,0.119994 -1.495944,-0.07081 -1.542817,-0.07888 -1.564773,-0.26898 z" id="path990-5-7-2-3"></path>
    <path style="fill:#000000;stroke-width:0.0464705;stroke-dasharray:none" d="m 12.154749,19.66119 c -0.02059,0.106231 -0.02679,0.238092 -0.01367,0.293038 0.03219,0.136632 2.792244,0.26728 2.836838,0.134279 0.01794,-0.05347 0.02387,-0.185349 0.01326,-0.293052 -0.01888,-0.189964 -0.06112,-0.197803 -1.409094,-0.261611 -1.347974,-0.0638 -1.390716,-0.05998 -1.426985,0.127364 z" id="path3642-1-3-60-2"></path>
    <path style="fill:#000000;stroke-width:0.037623;stroke-dasharray:none" d="m 12.235238,18.147288 c -0.02369,0.07895 -0.03843,0.210413 -0.03273,0.29213 0.01555,0.223101 1.359496,0.286717 1.395428,0.06605 0.01317,-0.08082 0.01083,-0.213095 -0.0058,-0.293955 -0.04419,-0.218272 -1.29283,-0.277377 -1.356835,-0.06422 z" id="path10219-5-0-1-8"></path>
    <path style="fill:#000000;stroke-width:0.0431717;stroke-dasharray:none" d="m 12.292761,17.086405 c -0.0232,-0.08137 -0.02949,-0.21387 -0.01394,-0.294456 0.04257,-0.219991 1.81218,-0.121582 1.837363,0.10218 0.0092,0.08196 -0.0075,0.213191 -0.03686,0.291634 -0.07966,0.211749 -1.723783,0.120318 -1.786551,-0.09935 z" id="path10221-7-09-0-3"></path>
    <g id="g10217-2-2-05-3" transform="matrix(0.84434208,0.03822739,-0.04198508,0.87318084,-197.27843,-78.429964)" style="fill:url(#linearGradient23664-9);fill-opacity:1">
      <path style="fill:url(#linearGradient25641);fill-opacity:1;stroke:#000000;stroke-width:0.628334;stroke-linejoin:round;stroke-dasharray:none;stroke-opacity:1" id="path4297-4-8-0-4" d="m 212.57798,-180.61572 a 1.6475775,2.0188036 0 0 1 -0.82379,1.74833 1.6475775,2.0188036 0 0 1 -1.64757,0 1.6475775,2.0188036 0 0 1 -0.82379,-1.74833" transform="matrix(0.93895174,-0.34404887,-0.34404887,-0.93895174,0,0)"></path>
      <path style="fill:url(#linearGradient25643);fill-opacity:1;stroke:#000000;stroke-width:0.628334;stroke-linejoin:round;stroke-dasharray:none;stroke-opacity:1" d="m 262.78545,96.562631 1.15044,-0.864884 1.127,-0.127949 -1.1631,0.109509 z" id="path4299-2-8-6-6"></path>
      <path style="fill:url(#linearGradient25645);fill-opacity:1;stroke:#000000;stroke-width:0.628334;stroke-linejoin:round;stroke-dasharray:none;stroke-opacity:1" d="m 263.46123,98.246725 1.5145,-0.111595 0.53679,1.545015 -0.54219,-1.479705 z" id="path4301-6-4-7-5"></path>
      <path style="fill:url(#linearGradient25647);fill-opacity:1;stroke:#000000;stroke-width:0.628334;stroke-linejoin:round;stroke-dasharray:none;stroke-opacity:1" d="m 263.74771,100.39014 1.07828,0.45991 0.124,1.3796 -0.11377,-1.35168 z" id="path4303-4-7-3-9"></path>
      <path style="fill:url(#linearGradient25649);fill-opacity:1;stroke:#000000;stroke-width:0.628334;stroke-linejoin:round;stroke-dasharray:none;stroke-opacity:1" d="m 259.8389,94.950574 0.45182,-1.970595 z" id="path4305-9-0-6-1"></path>
      <path style="fill:url(#linearGradient25651);fill-opacity:1;stroke:#000000;stroke-width:0.628334;stroke-linejoin:round;stroke-dasharray:none;stroke-opacity:1" d="m 259.24494,95.168211 -1.61803,-1.212166 z" id="path4307-0-8-3-2"></path>
      <path style="fill:url(#linearGradient25653);fill-opacity:1;stroke:#000000;stroke-width:0.628334;stroke-linejoin:round;stroke-dasharray:none;stroke-opacity:1" d="m 258.00591,98.313944 -1.43688,0.08315 -0.94285,0.630486 0.95849,-0.667885 z" id="path4309-5-7-1-5"></path>
      <path style="fill:url(#linearGradient25655);fill-opacity:1;stroke:#000000;stroke-width:0.628334;stroke-linejoin:round;stroke-dasharray:none;stroke-opacity:1" d="m 258.61412,100.02279 -1.22805,0.89333 0.5885,1.52607 -0.54219,-1.47971 z" id="path4311-0-9-50-7"></path>
      <path style="fill:url(#linearGradient25657);fill-opacity:1;stroke:#000000;stroke-width:0.628334;stroke-linejoin:round;stroke-dasharray:none;stroke-opacity:1" d="m 259.81254,101.83206 -0.52586,1.0477 0.7967,1.13311 -0.78647,-1.1052 z" id="path4313-2-5-58-7"></path>
      <path style="fill:url(#linearGradient25659);fill-opacity:1;stroke:#000000;stroke-width:0.628334;stroke-linejoin:round;stroke-dasharray:none;stroke-opacity:1" d="m 261.85646,101.68533 c -0.0789,0.11083 -0.23681,0.33252 -0.42904,0.43528 -0.19222,0.10275 -0.41886,0.0866 -0.71001,-0.005 -0.29115,-0.0918 -0.64679,-0.25919 -0.93267,-0.46207 -0.28589,-0.20288 -0.50199,-0.44127 -0.70963,-0.782 -0.20764,-0.34073 -0.40677,-0.7838 -0.57518,-1.218295 -0.1684,-0.434497 -0.30605,-0.860401 -0.36169,-1.137761 -0.0557,-0.27736 -0.0292,-0.406118 0.0247,-0.53507 0.0539,-0.128953 0.13538,-0.258019 0.8034,-0.558318 0.66802,-0.300298 1.92248,-0.771773 2.63413,-0.963021 0.71165,-0.191248 0.88042,-0.102337 0.99683,0.02963 0.11642,0.131962 0.18053,0.306947 0.28953,0.604425 0.109,0.297479 0.26288,0.717438 0.3815,1.041168 0.11862,0.32373 0.20197,0.551193 0.25627,0.749614 0.0543,0.19842 0.0796,0.367794 0.0982,0.569346 0.0187,0.201553 0.0307,0.435295 0.002,0.634187 -0.0283,0.19888 -0.0969,0.36297 -0.17045,0.53877 -0.0735,0.1758 -0.15198,0.36334 -0.2458,0.52863 -0.0938,0.1653 -0.20307,0.3084 -0.33532,0.40441 -0.13226,0.096 -0.28763,0.14494 -0.44782,0.13969 -0.1602,-0.005 -0.32528,-0.0647 -0.40787,-0.0945 -0.0826,-0.0298 -0.0826,-0.0297 -0.16155,0.0811 z" id="path4283-1-7-3-0"></path>
      <path style="fill:url(#linearGradient25661);fill-opacity:1;stroke:#000000;stroke-width:0.628334;stroke-linejoin:round;stroke-dasharray:none;stroke-opacity:1" d="m 261.8928,101.49486 -1.58406,-4.323089 z" id="path4291-0-71-53-6"></path>
    </g>
  </g>
</svg>